<svg width="426" height="582" viewBox="0 0 426 582" fill="none" xmlns="http://www.w3.org/2000/svg">
<g clip-path="url(#clip0_1_13)">
<path d="M0 81.9883C0 41.3995 39.4603 12.5219 78.148 24.7987L214.348 68.0191C239.269 75.9273 256.2 99.0629 256.2 125.209V583.5H0V81.9883Z" fill="#B9985C"/>
<path d="M85 258.988C85 218.399 124.46 189.522 163.148 201.799L299.348 245.019C324.269 252.927 341.2 276.063 341.2 302.209V627H85V258.988Z" fill="#6F85BF"/>
<path d="M170 422.988C170 382.399 209.46 353.522 248.148 365.799L384.348 409.019C409.269 416.927 426.2 440.063 426.2 466.209V791H170V422.988Z" fill="#D9D9D9"/>
</g>
<defs>
<clipPath id="clip0_1_13">
<rect width="426" height="582" fill="white"/>
</clipPath>
</defs>
</svg>
